<mxfile host="Electron" agent="Mozilla/5.0 (Windows NT 10.0; Win64; x64) AppleWebKit/537.36 (KHTML, like Gecko) draw.io/25.0.2 Chrome/128.0.6613.186 Electron/32.2.5 Safari/537.36" version="25.0.2">
  <diagram name="Page-1" id="RQFXzXEfKjz8AYzglD-q">
    <mxGraphModel dx="1050" dy="717" grid="1" gridSize="10" guides="1" tooltips="1" connect="1" arrows="1" fold="1" page="1" pageScale="1" pageWidth="850" pageHeight="1100" math="0" shadow="0">
      <root>
        <mxCell id="0" />
        <mxCell id="1" parent="0" />
        <mxCell id="7-pTgg3u9Ca_rultTnis-5" value="" style="edgeStyle=orthogonalEdgeStyle;rounded=0;orthogonalLoop=1;jettySize=auto;html=1;" edge="1" parent="1" source="7-pTgg3u9Ca_rultTnis-1" target="7-pTgg3u9Ca_rultTnis-4">
          <mxGeometry relative="1" as="geometry" />
        </mxCell>
        <mxCell id="7-pTgg3u9Ca_rultTnis-1" value="start" style="ellipse;whiteSpace=wrap;html=1;" vertex="1" parent="1">
          <mxGeometry x="370" y="40" width="120" height="80" as="geometry" />
        </mxCell>
        <mxCell id="7-pTgg3u9Ca_rultTnis-2" value="end" style="ellipse;whiteSpace=wrap;html=1;" vertex="1" parent="1">
          <mxGeometry x="370" y="720" width="120" height="80" as="geometry" />
        </mxCell>
        <mxCell id="7-pTgg3u9Ca_rultTnis-8" value="" style="edgeStyle=orthogonalEdgeStyle;rounded=0;orthogonalLoop=1;jettySize=auto;html=1;" edge="1" parent="1" source="7-pTgg3u9Ca_rultTnis-3" target="7-pTgg3u9Ca_rultTnis-7">
          <mxGeometry relative="1" as="geometry" />
        </mxCell>
        <mxCell id="7-pTgg3u9Ca_rultTnis-3" value="input a" style="shape=parallelogram;perimeter=parallelogramPerimeter;whiteSpace=wrap;html=1;fixedSize=1;" vertex="1" parent="1">
          <mxGeometry x="370" y="260" width="120" height="60" as="geometry" />
        </mxCell>
        <mxCell id="7-pTgg3u9Ca_rultTnis-6" value="" style="edgeStyle=orthogonalEdgeStyle;rounded=0;orthogonalLoop=1;jettySize=auto;html=1;" edge="1" parent="1" source="7-pTgg3u9Ca_rultTnis-4" target="7-pTgg3u9Ca_rultTnis-3">
          <mxGeometry relative="1" as="geometry" />
        </mxCell>
        <mxCell id="7-pTgg3u9Ca_rultTnis-4" value="đặt biến: trăm,chục,đơn,a,đảo ngược" style="rounded=0;whiteSpace=wrap;html=1;" vertex="1" parent="1">
          <mxGeometry x="370" y="160" width="120" height="60" as="geometry" />
        </mxCell>
        <mxCell id="7-pTgg3u9Ca_rultTnis-10" value="" style="edgeStyle=orthogonalEdgeStyle;rounded=0;orthogonalLoop=1;jettySize=auto;html=1;" edge="1" parent="1" source="7-pTgg3u9Ca_rultTnis-7" target="7-pTgg3u9Ca_rultTnis-9">
          <mxGeometry relative="1" as="geometry" />
        </mxCell>
        <mxCell id="7-pTgg3u9Ca_rultTnis-7" value="trăm=a/100&lt;div&gt;chục=(a/10)%10&lt;/div&gt;&lt;div&gt;đơn=a%10&lt;/div&gt;" style="rounded=0;whiteSpace=wrap;html=1;" vertex="1" parent="1">
          <mxGeometry x="370" y="370" width="120" height="60" as="geometry" />
        </mxCell>
        <mxCell id="7-pTgg3u9Ca_rultTnis-12" value="" style="edgeStyle=orthogonalEdgeStyle;rounded=0;orthogonalLoop=1;jettySize=auto;html=1;" edge="1" parent="1" source="7-pTgg3u9Ca_rultTnis-9" target="7-pTgg3u9Ca_rultTnis-11">
          <mxGeometry relative="1" as="geometry" />
        </mxCell>
        <mxCell id="7-pTgg3u9Ca_rultTnis-9" value="đảo ngược=đơn*100+chục*10+trăm" style="rounded=0;whiteSpace=wrap;html=1;" vertex="1" parent="1">
          <mxGeometry x="350" y="470" width="160" height="90" as="geometry" />
        </mxCell>
        <mxCell id="7-pTgg3u9Ca_rultTnis-13" value="" style="edgeStyle=orthogonalEdgeStyle;rounded=0;orthogonalLoop=1;jettySize=auto;html=1;" edge="1" parent="1" source="7-pTgg3u9Ca_rultTnis-11" target="7-pTgg3u9Ca_rultTnis-2">
          <mxGeometry relative="1" as="geometry" />
        </mxCell>
        <mxCell id="7-pTgg3u9Ca_rultTnis-11" value="đảo ngược" style="strokeWidth=2;html=1;shape=mxgraph.flowchart.display;whiteSpace=wrap;" vertex="1" parent="1">
          <mxGeometry x="380" y="610" width="100" height="60" as="geometry" />
        </mxCell>
      </root>
    </mxGraphModel>
  </diagram>
</mxfile>
